<svg version="1.1" xmlns="http://www.w3.org/2000/svg" xmlns:xlink="http://www.w3.org/1999/xlink" width="25.85716" height="36.93912" viewBox="0,0,25.85716,36.93912"><g transform="translate(-227.07142,-160.13045)"><g data-paper-data="{&quot;isPaintingLayer&quot;:true}" fill-rule="nonzero" stroke-width="0" stroke-linecap="butt" stroke-linejoin="miter" stroke-miterlimit="10" stroke-dasharray="" stroke-dashoffset="0" style="mix-blend-mode: normal"><g stroke="none"><g><path d="M233.10631,191.23761c0,0 -2.37974,-3.63972 -3.32892,-7.91182c-0.41557,-1.87039 -0.15566,-3.50859 -0.14501,-4.75769c0.01764,-2.06789 0.6837,-4.83561 2.6886,-7.69157c2.33413,-3.32495 4.43929,-4.67558 4.43929,-4.67558c0,0 -0.76089,-1.91964 -0.5809,-3.51313c0.1735,-1.536 1.65261,-2.59596 3.465,-2.5563c2.01324,0.04406 3.2507,1.15905 3.23474,2.95195c-0.01701,1.91136 -2.35082,5.66261 -3.0744,8.34528c-0.58773,2.17901 -0.76081,5.28308 -0.81139,6.79303c-0.01857,0.55433 0.43758,0.89588 0.72905,0.89721c0.14389,0.00065 0.36894,0.00167 0.59999,0.00272c0.42386,0.00192 0.84929,-0.46461 0.84625,-1.16442c-0.00594,-1.37107 0.04784,-3.62988 0.41815,-4.99209c0.30929,-1.13776 0.95823,-2.69501 1.50396,-3.84404c0.12945,-0.27256 0.32513,-0.60252 0.5163,-0.90452c0.3024,-0.47771 0.88124,-0.6587 1.31508,-0.27364c0.88478,0.78529 2.37749,2.22896 3.27783,3.75018c1.74305,2.94508 2.59046,7.08466 2.59046,9.50299c0,3.90044 -4.07912,9.69911 -4.07912,9.69911z" fill="#262626"/><path d="M233.20471,189.24671c0,0 -1.91025,-3.18974 -2.74209,-6.93367c-0.36419,-1.63915 -0.13641,-3.07482 -0.12708,-4.16949c0.01546,-1.81224 0.94972,-4.23778 2.70675,-6.74066c2.04556,-2.91389 4.75431,-5.06154 4.75431,-5.06154c0,0 -0.92973,-1.68231 -0.77199,-3.07879c0.15205,-1.34611 1.01011,-2.27502 2.59843,-2.24027c1.76434,0.03861 2.41062,0.75285 2.39664,2.32409c-0.01491,1.67506 -2.67364,5.75126 -3.30777,8.10227c-0.50055,1.85578 -0.65791,5.4514 -0.70707,7.37562c-0.01999,0.78273 0.82998,1.2553 1.37749,1.23371c0.31301,-0.01234 0.83143,-0.03278 1.33914,-0.0528c0.75341,-0.02971 1.45091,-0.72331 1.43626,-1.64961c-0.02445,-1.54572 0.00036,-3.8195 0.30686,-4.94697c0.27105,-0.9971 0.75213,-2.51206 1.23039,-3.51903c0.15409,-0.32444 0.4355,-0.74968 0.73702,-0.8042c0.27163,-0.04911 0.55956,0.24453 0.78544,0.45628c0.60798,0.56995 1.44459,1.46317 2.10377,2.57692c1.52756,2.58098 2.06922,6.20878 2.06922,8.32813c0,3.41822 -2.98571,8.5 -2.98571,8.5z" fill="#565352"/></g><path d="M230.24687,179.67162c0.0952,-1.43003 0.11477,-3.25999 0.87861,-4.92651c0.6078,-1.32605 1.97897,-3.51593 3.42315,-5.21189c1.14538,-1.34507 2.29336,-2.1929 2.87798,-2.76562c0.66108,-0.64762 0.7759,0.12352 0.50494,0.56577c-0.27096,0.44225 -3.30429,3.75427 -4.50179,6.44983c-0.42312,0.95244 -1.26426,2.72357 -1.65327,4.5582c-0.41584,1.96117 0.22439,3.99491 -0.10287,5.17873c-0.14158,0.51216 -0.51956,0.61861 -0.82325,-0.03724c-0.38343,-0.82807 -0.68146,-2.64031 -0.6035,-3.81127z" fill="#787575"/><path d="M233.71112,190.33528c0,0 1.89318,-1.54088 3.99603,-1.68098c1.97832,-0.13181 7.1581,-2.07058 8.86332,-5.46076c1.73136,-3.44213 1.18525,-7.87071 0.74755,-10.06786c-0.16864,-0.84654 0.00468,-0.96355 0.40099,-0.24356c0.1729,0.3141 0.35921,0.68944 0.53771,1.11965c0.81945,1.97491 1.61981,4.96089 1.49128,7.20097c-0.22071,3.84658 -3.17973,7.98969 -3.17973,7.98969z" fill="#454242"/><path d="M236.87074,179.87924c-0.02576,-0.46477 0.10411,-6.03337 0.10411,-6.75275c0,-1.52085 1.33128,-3.33383 2.54267,-5.53616c0.55466,-1.00838 1.33108,-2.50783 1.74319,-3.31263c0.26345,-0.51449 0.4504,-2.14022 0.4504,-2.14022c0,0 0.89353,0.40685 0.20779,2.33495c-0.82968,2.33282 -2.98554,6.39302 -3.36235,8.18568c-0.39086,1.85949 -0.52266,4.65181 -0.5665,6.2306c-0.01862,0.67036 0.75368,1.2122 1.26871,1.19955c0.27806,-0.00683 0.73103,-0.01795 1.196,-0.02937c0.82064,-0.02016 1.68112,-0.68646 1.68774,-1.43543c0.00504,-0.57017 0.01253,-1.20046 0.02326,-1.65197c0.02445,-1.02918 0.22668,-3.06477 0.22668,-3.06477c0,0 0.29764,4.34413 0.37819,5.51975c0.01926,0.28118 -0.01617,0.65185 -0.19265,0.89622c-0.1699,0.23528 -0.47461,0.34945 -0.78087,0.36025c-1.4153,0.0499 -3.54977,0.12074 -4.13396,0.05098c-0.58419,-0.06976 -0.76665,-0.38991 -0.79241,-0.85468z" fill="#454242"/></g><g stroke="#000000"><path d="M227.07143,196.27866c0,-0.91122 0,-2.41555 0,-3.44987c0,-0.8088 1.23058,-2.30781 3.58897,-3.08087c2.35231,-0.77107 5.67519,-1.1706 8.95343,-1.19879c2.70636,-0.02327 5.64074,0.33056 7.96801,0.85963c3.27638,0.74484 5.34674,2.19039 5.34674,3.06663c0,1.08378 0,2.71718 0,3.71631c0,0.52725 -0.37058,0.87786 -1.02181,0.87786c-4.38471,0 -21.49192,0 -23.86957,0c-0.5379,0 -0.96578,-0.31433 -0.96578,-0.79091z" fill="#262626"/><g><path d="M227.88096,195.71344c0,-0.73256 0,-1.97505 0,-2.82499c0,-0.65389 1.14899,-1.86581 3.35102,-2.49082c2.19635,-0.6234 5.29894,-0.9464 8.35984,-0.96919c2.52693,-0.01881 5.26676,0.26725 7.43973,0.69499c3.05916,0.60218 4.99227,1.77089 4.99227,2.47931c0,0.83707 0,2.07968 0,2.89331c0,0.48749 -0.30895,0.82098 -0.85617,0.82098c-4.01713,0 -20.87445,0 -22.6087,0c-0.38632,0 -0.67799,-0.23845 -0.67799,-0.60359z" fill="#565352"/><path d="M227.88096,192.88845c0,-0.65389 1.14899,-1.86581 3.35102,-2.49082c2.19635,-0.6234 5.29894,-0.9464 8.35984,-0.96919c2.52693,-0.01881 5.26676,0.26725 7.43973,0.69499c3.05916,0.60218 4.99227,1.77089 4.99227,2.47931c0,0.00097 -6.08994,-1.14578 -12.25917,-1.07265c-5.89602,0.0699 -11.88369,1.35986 -11.88369,1.35836z" fill="#787575"/></g></g><path d="M237.06978,163.84c-0.06127,-0.17785 0.00623,-0.47963 0.08879,-0.92981c0.05262,-0.2869 0.15745,-0.56184 0.24273,-0.69304c0.08698,-0.13382 0.22196,-0.44453 0.47883,-0.64477c0.3755,-0.2927 0.53349,-0.39486 0.88965,-0.46572c0.35616,-0.07085 0.29239,0.24066 0.02016,0.38496c-0.26711,0.14158 -0.73046,0.7571 -0.85481,0.95703c-0.15693,0.25232 -0.50952,1.07553 -0.55613,1.38016c-0.04457,0.29131 -0.24796,0.18904 -0.30922,0.01119z" fill="#787575" stroke="none"/></g></g></svg>