<svg version="1.1" xmlns="http://www.w3.org/2000/svg" xmlns:xlink="http://www.w3.org/1999/xlink" width="35.11433" height="37.53292" viewBox="0,0,35.11433,37.53292"><g transform="translate(-222.3382,-159.22993)"><g data-paper-data="{&quot;isPaintingLayer&quot;:true}" fill-rule="nonzero" stroke-width="0" stroke-linecap="butt" stroke-linejoin="miter" stroke-miterlimit="10" stroke-dasharray="" stroke-dashoffset="0" style="mix-blend-mode: normal"><g><path d="M237.16928,175.33166v-16.10173h5.46769v16.10173z" fill="#222222" stroke="none"/><path d="M234.15313,167.73903v-5.19709h11.5v5.19709z" fill="#222222" stroke="none"/><path d="M234.8296,167.12577v-3.92353h10.14706v3.92353z" fill="#565352" stroke="none"/><g stroke="none"><g><path d="M231.66212,189.98362c0,0 -6.40418,-4.33033 -8.73918,-9.30791c-0.70004,-1.4923 -0.58438,-3.4151 -0.56723,-4.79271c0.06326,-5.08117 4.46169,-7.05031 8.88339,-7.19131c2.77392,-0.08846 9.58843,2.11509 9.58843,2.11509v18.61282zM237.02035,184.62538c0,0 0.14101,-1.67919 0.14101,-4.79421c0,-1.46255 0.0506,-2.74958 -0.36773,-3.55391c-0.47266,-0.90876 -1.64595,-1.24031 -3.29843,-1.24031c-1.42692,0 -2.06342,0.07913 -2.6399,0.31148c-0.68198,0.27488 -1.16726,0.82055 -1.16726,2.50865c0,1.83837 2.22267,4.14624 4.27569,5.49798c1.42572,0.93871 3.05662,1.27032 3.05662,1.27032z" data-paper-data="{&quot;index&quot;:null}" fill="#222222"/><g><path d="M232.26386,186.48361c0,0 -4.52454,-3.05936 -6.17421,-6.57601c-0.49458,-1.0543 -0.41286,-2.41276 -0.40074,-3.38604c0.04469,-3.58984 3.15217,-4.98103 6.27609,-5.08065c1.95976,-0.0625 6.7742,1.49431 6.7742,1.49431v13.14991zM236.04944,182.69804c0,0 0.09962,-1.18634 0.09962,-3.3871c0,-1.03329 0.03575,-1.94257 -0.25981,-2.51082c-0.33393,-0.64204 -1.16286,-0.87628 -2.33033,-0.87628c-1.00812,0 -1.45781,0.0559 -1.86508,0.22006c-0.48182,0.1942 -0.82467,0.57971 -0.82467,1.77235c0,1.29881 1.57031,2.9293 3.02077,3.8843c1.00726,0.6632 2.1595,0.89748 2.1595,0.89748z" data-paper-data="{&quot;index&quot;:null}" fill="#222222"/><path d="M241.17653,186.08513v-13.14991c0,0 4.81443,-1.55681 6.7742,-1.49431c3.12392,0.09962 6.2314,1.49081 6.27609,5.08065c0.01212,0.97328 0.09383,2.33174 -0.40074,3.38604c-1.64967,3.51665 -6.17421,6.57601 -6.17421,6.57601zM246.02579,181.80055c1.45045,-0.955 3.02077,-2.5855 3.02077,-3.8843c0,-1.19264 -0.34285,-1.57815 -0.82467,-1.77235c-0.40728,-0.16416 -0.85696,-0.22006 -1.86508,-0.22006c-1.16747,0 -1.9964,0.23424 -2.33033,0.87628c-0.29555,0.56825 -0.25981,1.47753 -0.25981,2.51082c0,2.20076 0.09962,3.3871 0.09962,3.3871c0,0 1.15224,-0.23428 2.1595,-0.89748z" data-paper-data="{&quot;index&quot;:null}" fill="#222222"/><path d="M238.9632,189.41959v-18.61282c0,0 6.81451,-2.20355 9.58843,-2.11509c4.4217,0.141 8.82013,2.11014 8.88339,7.19132c0.01715,1.37761 0.13281,3.30042 -0.56723,4.79271c-2.335,4.97758 -8.73918,9.30791 -8.73918,9.30791zM245.82699,183.35506c2.05302,-1.35174 4.27569,-3.65961 4.27569,-5.49798c0,-1.6881 -0.48528,-2.23377 -1.16726,-2.50865c-0.57648,-0.23235 -1.21298,-0.31148 -2.6399,-0.31148c-1.65247,0 -2.82576,0.33155 -3.29843,1.24031c-0.41834,0.80432 -0.36773,2.09136 -0.36773,3.55391c0,3.11502 0.14101,4.79421 0.14101,4.79421c0,0 1.63091,-0.33161 3.05662,-1.27032z" data-paper-data="{&quot;index&quot;:null}" fill="#222222"/><path d="M231.90312,188.525c0,0 -5.67722,-3.83877 -7.74716,-8.25133c-0.62058,-1.3229 -0.51805,-3.02744 -0.50284,-4.24867c0.05607,-4.50439 3.95523,-6.25 7.875,-6.375c2.45904,-0.07842 8.375,1.875 8.375,1.875v16.5zM236.65312,183.775c0,0 0.125,-1.48857 0.125,-4.25c0,-1.29653 0.04486,-2.43746 -0.32599,-3.15048c-0.41901,-0.8056 -1.45911,-1.09952 -2.92401,-1.09952c-1.26495,0 -1.8292,0.07015 -2.34024,0.27612c-0.60457,0.24367 -1.03476,0.72741 -1.03476,2.22388c0,1.62969 1.97037,3.67558 3.79035,4.87388c1.26387,0.83216 2.70965,1.12613 2.70965,1.12613z" data-paper-data="{&quot;index&quot;:null}" fill="#565352"/><path d="M239.8876,188.025v-16.5c0,0 6.04096,-1.95342 8.5,-1.875c3.91978,0.125 7.81892,1.87061 7.875,6.375c0.0152,1.22124 0.11774,2.92577 -0.50284,4.24867c-2.06995,4.41256 -7.74716,8.25133 -7.74716,8.25133zM245.97225,182.64888c1.81997,-1.1983 3.79035,-3.24419 3.79035,-4.87388c0,-1.49648 -0.43019,-1.98021 -1.03476,-2.22388c-0.51103,-0.20597 -1.07529,-0.27612 -2.34024,-0.27612c-1.4649,0 -2.505,0.29391 -2.924,1.09952c-0.37085,0.71302 -0.326,1.85395 -0.326,3.15049c0,2.76143 0.125,4.25 0.125,4.25c0,0 1.44578,-0.29397 2.70965,-1.12613z" data-paper-data="{&quot;index&quot;:null}" fill="#565352"/></g></g><path d="M223.77813,179.65c0,0 -0.19319,-1.75753 -0.056,-3.49455c0.09323,-1.18044 0.40631,-2.35142 0.7751,-2.95489c0.41491,-0.67894 1.24933,-1.66378 2.17899,-2.12915c1.13566,-0.56849 2.35191,-1.04641 2.35191,-1.04641c0,0 -1.73042,0.99176 -2.81304,2.22525c-0.68848,0.78442 -0.99275,1.49105 -1.37263,2.11268c-0.83294,1.36299 -1.06433,5.28708 -1.06433,5.28708z" fill="#777474"/></g><g stroke="#000000"><path d="M227.25317,195.97195c0,-0.91122 0,-2.41555 0,-3.44987c0,-0.8088 1.23058,-2.30781 3.58897,-3.08087c2.35231,-0.77107 5.67519,-1.1706 8.95343,-1.19879c2.70636,-0.02327 5.64074,0.33056 7.96801,0.85963c3.27638,0.74484 5.34674,2.19039 5.34674,3.06663c0,1.08378 0,2.71718 0,3.71631c0,0.52725 -0.37058,0.87786 -1.02181,0.87786c-4.38471,0 -21.49192,0 -23.86957,0c-0.5379,0 -0.96578,-0.31433 -0.96578,-0.79091z" fill="#262626"/><g><path d="M228.0627,195.40673c0,-0.73256 0,-1.97505 0,-2.82499c0,-0.65389 1.14899,-1.86581 3.35102,-2.49082c2.19635,-0.6234 5.29894,-0.9464 8.35984,-0.96919c2.52693,-0.01881 5.26676,0.26725 7.43973,0.69499c3.05916,0.60218 4.99227,1.77089 4.99227,2.47931c0,0.83707 0,2.07968 0,2.89331c0,0.48749 -0.30895,0.82098 -0.85617,0.82098c-4.01713,0 -20.87445,0 -22.6087,0c-0.38632,0 -0.67799,-0.23845 -0.67799,-0.60359z" fill="#565352"/><path d="M228.0627,192.58174c0,-0.65389 1.14899,-1.86581 3.35102,-2.49082c2.19635,-0.6234 5.29894,-0.9464 8.35984,-0.96919c2.52693,-0.01881 5.26676,0.26725 7.43973,0.69499c3.05916,0.60218 4.99227,1.77089 4.99227,2.47931c0,0.00097 -6.08994,-1.14578 -12.25917,-1.07265c-5.89602,0.0699 -11.88369,1.35986 -11.88369,1.35836z" fill="#787575"/></g></g><path d="M237.94136,173.52406v-13.56887h3.92353v13.56888z" fill="#565352" stroke="none"/></g><path d="M246.30591,188.44167c0,0 3.37915,-2.68863 5.8437,-5.63092c1.32611,-1.58316 2.03218,-3.5062 2.6051,-4.52293c1.11218,-1.97372 0.4262,-5.59615 0.4262,-5.59615c0,0 0.72264,0.83757 1.05112,2.08527c0.2344,0.89034 0.14539,1.98952 0.00885,3.14222c-0.11789,0.99529 -0.24383,2.03048 -0.7254,3.00561c-0.73912,1.49662 -1.97707,2.85175 -2.66281,3.70394c-1.50024,1.86437 -4.92176,4.06296 -4.92176,4.06296z" fill="#454242" stroke="none"/><path d="M239.5105,188.0236v-15.875h1.5v15.875z" fill="#565352" stroke="none"/></g></g></svg>