<svg version="1.1" xmlns="http://www.w3.org/2000/svg" xmlns:xlink="http://www.w3.org/1999/xlink" width="30.63491" height="36.54595" viewBox="0,0,30.63491,36.54595"><g transform="translate(-222.38255,-160.32703)"><g data-paper-data="{&quot;isPaintingLayer&quot;:true}" fill-rule="nonzero" stroke-width="0" stroke-linecap="butt" stroke-linejoin="miter" stroke-miterlimit="10" stroke-dasharray="" stroke-dashoffset="0" style="mix-blend-mode: normal"><g stroke="none"><g><path d="M229.05891,191.23093c0,0 0.58355,-3.24404 1.12111,-4.53726c0.91882,-2.21042 3.72612,-3.73493 5.51233,-6.26721c1.29026,-1.82917 1.52825,-2.02262 1.52825,-2.02262c0,0 -1.13273,0.46012 -3.03768,1.68195c-0.98852,0.63403 -2.15442,0.36362 -3.07085,1.24372c-0.67804,0.65116 -0.71992,0.89116 -2.12457,1.75858c-0.3125,0.19298 -3.58667,0.20051 -5.62623,-1.61672c-0.66286,-0.5906 -1.30398,-1.80266 -0.79497,-2.95724c0.75734,-1.71783 2.60278,-4.16177 4.26033,-5.73761c0.3723,-0.35394 0.99648,-2.77502 1.59874,-4.96373c0.05267,-0.1914 0.43322,-0.15198 1.31475,-1.50638c0.09407,-0.14452 0.49594,-0.7434 1.06046,-1.36324c0.41494,-0.45561 1.01885,-0.92253 1.13966,-1.22867c0.07794,-0.19752 0.93573,-3.25313 2.29137,-3.37708c1.55079,-0.14179 0.70637,1.18579 3.38132,2.81104c1.6867,1.02481 3.37382,0.92546 5.35826,1.99124c3.82661,2.05516 4.85354,2.90562 6.77801,6.00841c1.92447,3.10279 2.8585,6.12643 2.8585,9.52834c0,2.10308 -0.63886,6.01793 -1.28304,8.54875c-0.38661,1.51889 -0.91581,2.44549 -0.91581,2.44549z" fill="#262626"/><path d="M230.57437,189.85346c0,0 0.78569,-2.07269 1.27464,-3.24896c0.83573,-2.01053 4.06727,-4.0243 5.69195,-6.32758c1.17357,-1.66376 0.90008,-3.22346 0.90008,-3.22346c0,0 -2.2259,0.82231 -3.95859,1.93364c-0.89912,0.5767 -2.86509,0.21704 -3.69865,1.01755c-0.61673,0.59228 -0.31373,1.06142 -1.59135,1.8504c-0.28424,0.17553 -2.6979,0.77432 -4.55302,-0.87858c-0.60291,-0.53719 -1.18606,-1.63965 -0.72308,-2.68981c0.68885,-1.56248 2.3674,-3.78542 3.87506,-5.21874c0.33863,-0.32193 0.90637,-2.52407 1.45416,-4.51485c0.04791,-0.1741 0.39405,-0.13824 1.19585,-1.37016c0.08556,-0.13145 0.45109,-0.67618 0.96456,-1.23995c0.37742,-0.41441 0.92672,-0.8391 1.03659,-1.11756c0.0709,-0.17965 0.51003,-2.95894 1.74307,-3.07168c1.41054,-0.12897 0.64249,1.07856 3.07554,2.55683c1.53416,0.93214 3.4098,0.84177 5.21478,1.81117c3.48057,1.8693 4.41463,2.64286 6.16506,5.46506c1.75044,2.82219 2.6,5.5724 2.6,8.66667c0,1.91289 -0.58109,5.47371 -1.16701,7.77566c-0.35164,1.38154 -0.83299,2.22433 -0.83299,2.22433z" fill="#565352"/></g><path d="M242.8414,188.86012c0,0 0.26662,-2.01246 1.10569,-4.63119c1.13679,-3.54788 2.90655,-8.20856 2.58304,-10.48511c-0.56271,-3.95978 -7.06374,-8.63371 -7.06374,-8.63371c0,0 0.9023,0.10507 2.15451,0.6348c0.84295,0.3566 1.84446,0.95339 2.83603,1.53387c1.88291,1.10229 3.43629,2.7529 4.22076,4.27823c0.86322,1.67843 2.42886,4.31104 2.55084,7.42273c0.20504,5.23063 -1.38713,11.13038 -1.38713,11.13038z" fill="#454242"/><path d="M238.4664,177.11012l1.375,-3.125l0.5,5c0,0 -2.91288,2.58712 -3.25,2.25c-0.14864,-0.14864 0.5142,-1.08958 0.92546,-2.15381c0.35034,-0.90658 0.44954,-1.97119 0.44954,-1.97119z" fill="#454242"/><path d="M230.8414,179.86012v-3.25c0,0 0.93649,0 1.5,0c0.72749,0 2.625,2.125 2.625,2.125c0,0 -0.43694,0.29668 -0.97069,0.49025c-0.3389,0.1229 -0.74396,0.14998 -1.01393,0.20725c-0.67947,0.14413 -2.14038,0.4275 -2.14038,0.4275z" fill="#454242"/><path d="M231.3414,171.36012c0,0 0.54211,-1.91863 1.11795,-2.38373c0.49532,-0.40006 1.69536,-0.80265 2.13205,-0.24127c0.43669,0.56138 0.3116,1.71947 -0.5,2.375c-0.8116,0.65553 -2.75,0.25 -2.75,0.25z" fill="#262626"/><path d="M223.87145,179.70199c-0.03915,-0.16389 -0.06364,-0.36097 -0.05742,-0.59352c0.01425,-0.53273 0.21789,-1.2516 0.6917,-2.18403c0.4401,-0.86609 3.15218,-3.52981 3.41213,-4.10885c0.65186,-1.45201 1.39122,-4.33243 1.39122,-4.33243c0,0 1.02872,-1.23979 1.90866,-2.24416c0.65323,-0.7456 1.1586,-1.27985 1.25339,-1.51164c0.18894,-0.46197 0.14755,-1.2025 0.74562,-2.05958c0.08911,-0.1277 0.14227,-0.30861 0.23431,-0.43268c0.18583,-0.25048 0.39034,-0.40908 0.39034,-0.40908c0,0 0.33957,-0.12332 0.53661,-0.11735c0.17544,0.00532 0.4228,0.38816 0.22609,0.69096c-0.19248,0.29628 -0.41477,0.65582 -0.54091,0.91877c-0.28804,0.60041 -0.73814,1.96311 -0.73814,1.96311l-2.57173,3.50938l-1.70238,4.49742c0,0 -3.5338,5.13669 -4.29467,6.24268c-0.27538,0.40029 -0.77813,0.61756 -0.8848,0.171z" fill="#787575"/></g><g stroke="#000000"><path d="M227.1603,196.08207c0,-0.91122 0,-2.41555 0,-3.44987c0,-0.8088 1.23058,-2.30781 3.58897,-3.08087c2.35231,-0.77107 5.67519,-1.1706 8.95343,-1.19879c2.70636,-0.02327 5.64074,0.33056 7.96801,0.85963c3.27638,0.74484 5.34674,2.19039 5.34674,3.06663c0,1.08378 0,2.71718 0,3.71631c0,0.52725 -0.37058,0.87786 -1.02181,0.87786c-4.38471,0 -21.49192,0 -23.86957,0c-0.5379,0 -0.96578,-0.31433 -0.96578,-0.79091z" fill="#262626"/><g><path d="M227.96983,195.51685c0,-0.73256 0,-1.97505 0,-2.82499c0,-0.65389 1.14899,-1.86581 3.35102,-2.49082c2.19635,-0.6234 5.29894,-0.9464 8.35984,-0.96919c2.52693,-0.01881 5.26676,0.26725 7.43973,0.69499c3.05916,0.60218 4.99227,1.77089 4.99227,2.47931c0,0.83707 0,2.07968 0,2.89331c0,0.48749 -0.30895,0.82098 -0.85617,0.82098c-4.01713,0 -20.87445,0 -22.6087,0c-0.38632,0 -0.67799,-0.23845 -0.67799,-0.60359z" fill="#565352"/><path d="M227.96983,192.69186c0,-0.65389 1.14899,-1.86581 3.35102,-2.49082c2.19635,-0.6234 5.29894,-0.9464 8.35984,-0.96919c2.52693,-0.01881 5.26676,0.26725 7.43973,0.69499c3.05916,0.60218 4.99227,1.77089 4.99227,2.47931c0,0.00097 -6.08994,-1.14578 -12.25917,-1.07265c-5.89602,0.0699 -11.88369,1.35986 -11.88369,1.35836z" fill="#787575"/></g></g></g></g></svg>