<svg version="1.1" xmlns="http://www.w3.org/2000/svg" xmlns:xlink="http://www.w3.org/1999/xlink" width="23.46564" height="27.32543" viewBox="0,0,23.46564,27.32543"><g transform="translate(-228.32768,-169.43589)"><g data-paper-data="{&quot;isPaintingLayer&quot;:true}" fill-rule="nonzero" stroke="none" stroke-width="0" stroke-linecap="butt" stroke-linejoin="miter" stroke-miterlimit="10" stroke-dasharray="" stroke-dashoffset="0" style="mix-blend-mode: normal"><g><path d="M228.42665,196.76132c0,0 -0.65254,-3.0019 1.39348,-5.78966c0.70725,-0.96364 1.41171,-1.86127 2.36913,-2.61615c0.96829,-0.76345 2.18923,-1.38396 2.84231,-2.32465c0.93677,-1.34931 2.17679,-3.67242 2.17679,-3.67242c0,0 -0.737,0 -1.43225,0c-0.73287,0 -1.52144,-1.19844 -0.08064,-2.41162c0.53527,-0.4507 1.88708,-1.24572 1.88708,-1.24572l5.83489,0.01349c0,0 1.05357,0.87593 1.6768,1.25653c2.01624,1.2313 0.56925,2.36048 -0.28629,2.34913c-0.75809,-0.01006 -1.20604,0.03819 -1.20604,0.03819c0,0 0.45642,2.19263 1.48189,3.492c1.79238,2.27115 4.59992,4.39414 5.42399,5.72811c0.94277,1.52612 1.28553,5.18277 1.28553,5.18277z" fill="#262626"/><g><path d="M234.62322,175.38374c0,-3.28491 2.66294,-5.94785 5.94785,-5.94785c3.28491,0 5.94785,2.66294 5.94785,5.94785c0,3.28491 -2.66294,5.94785 -5.94785,5.94785c-3.28491,0 -5.94785,-2.66295 -5.94785,-5.94785z" fill="#262626"/><g><g fill="#565352"><path d="M229.15999,195.91527c0,0 0.01251,-2.71494 1.8247,-5.29348c1.25994,-1.79275 3.81974,-2.71624 4.97013,-4.44665c0.60351,-0.90779 1.44285,-2.80165 1.85564,-3.76682c0.15472,-0.36176 0.24952,-0.59305 0.24952,-0.59305c0,0 -1.1842,0 -1.8,0c-0.64911,0 -1.34756,-0.62565 -0.07142,-1.74778c0.4741,-0.41688 1.67142,-1.15222 1.67142,-1.15222l5.16805,0.01248c0,0 0.93315,0.81018 1.48516,1.16222c1.78582,1.13889 0.5042,1.76215 -0.25357,1.75164c-0.67146,-0.00931 -1.59964,-0.02634 -1.59964,-0.02634c0,0 0.75854,3.42278 1.66681,4.62463c1.58754,2.10069 4.6647,4.06435 5.39459,5.2982c0.83502,1.41159 1.1386,4.17717 1.1386,4.17717z"/><path d="M235.35999,175.36527c0,-2.84426 2.30573,-5.15 5.15,-5.15c2.84427,0 5.15,2.30573 5.15,5.15c0,2.84427 -2.30573,5.15 -5.15,5.15c-2.84427,0 -5.15,-2.30573 -5.15,-5.15z"/></g><g><g><path d="M229.37024,194.21527c0,0 1.01852,-2.92768 1.91761,-4.04322c0.90091,-1.1178 3.40547,-2.65678 3.40547,-2.65678c0,0 0.07475,1.11265 -0.47701,1.98849c-0.59023,0.9369 -1.82521,1.66056 -2.33928,2.29838c-0.69854,0.86671 -2.50679,2.41313 -2.50679,2.41313z" fill="#777474"/><path d="M237.33947,183.51527l0.8,-1.7h4.55385c0,0 0.9501,3.32203 1.69245,4.54383c0.84445,1.38983 3.30755,3.35617 3.30755,3.35617c0,0 -3.58728,-0.87658 -5.21915,-1.8685c-1.75864,-1.06897 -5.1347,-4.3315 -5.1347,-4.3315z" fill="#454242"/><path d="M235.65999,180.76765c0,0 0.30315,-0.46276 0.49211,-0.65621c0.25665,-0.26277 0.97456,-0.7295 0.97456,-0.7295c0,0 -0.6747,0.80986 -0.92702,1.19407c-0.2354,0.35844 -0.53965,1.03927 -0.53965,1.03927c0,0 -0.19047,-0.29613 -0.19047,-0.44c0,-0.13847 0.19047,-0.40762 0.19047,-0.40762z" fill="#777474"/><path d="M243.23999,181.73527c0,0 0.88506,-0.61099 0.92872,-0.99291c0.04519,-0.39539 -0.66205,-1.34042 -0.66205,-1.34042c0,0 1.27183,0.96772 1.75307,1.37678c0.3869,0.32887 0.23881,0.90746 -0.22059,0.91745c-0.54734,0.0119 -1.79915,0.03911 -1.79915,0.03911z" fill="#454242"/><path d="M239.97332,179.53527c0,0 3.17647,-1.28603 3.9228,-2.52609c0.2846,-0.47287 0.61659,-1.20998 0.75196,-2.07264c0.1949,-1.24203 0.12524,-2.60127 0.12524,-2.60127c0,0 1.0775,1.813 0.93142,3.57565c-0.16173,1.95153 -2.06475,3.55769 -2.06475,3.55769z" fill="#454242"/></g><path d="M235.67061,177.12839c0,0 -0.76979,-2.8004 0.66445,-4.58608c0.37974,-0.47279 0.79615,-0.94897 1.21267,-1.26712c0.32077,-0.24502 0.64161,-0.365 0.94581,-0.51031c1.03009,-0.49206 1.86938,-0.48264 1.86938,-0.48264c0,0 -1.07957,0.57096 -2.04309,1.3299c-0.51612,0.40653 -0.99894,0.92186 -1.26471,1.30961c-0.30639,0.44702 -0.73494,1.1683 -0.95733,1.88834c-0.35851,1.16078 -0.42718,2.3183 -0.42718,2.3183z" fill="#777474"/></g></g></g></g></g></g></svg>