<svg version="1.1" xmlns="http://www.w3.org/2000/svg" xmlns:xlink="http://www.w3.org/1999/xlink" width="35.40001" height="33.64924" viewBox="0,0,35.40001,33.64924"><g transform="translate(-222.3,-163.22424)"><g data-paper-data="{&quot;isPaintingLayer&quot;:true}" fill-rule="nonzero" stroke-width="0" stroke-linecap="butt" stroke-linejoin="miter" stroke-miterlimit="10" stroke-dasharray="" stroke-dashoffset="0" style="mix-blend-mode: normal"><g stroke="none"><g><path d="M241.3,167.02424c0,-2.09868 1.70132,-3.8 3.8,-3.8c2.09868,0 3.8,1.70131 3.8,3.8c0,2.09869 -1.70132,3.80001 -3.8,3.80001c-2.09868,0 -3.8,-1.70132 -3.8,-3.80001z" fill="#262626"/><path d="M242.06667,167.05758c0,-1.69367 1.37299,-3.06667 3.06667,-3.06667c1.69367,0 3.06667,1.37299 3.06667,3.06667c0,1.69368 -1.37299,3.06667 -3.06667,3.06667c-1.69367,0 -3.06667,-1.37299 -3.06667,-3.06667z" fill="#565352"/></g><g><path d="M231.1,167.02424c0,-2.09868 1.70132,-3.8 3.8,-3.8c2.09868,0 3.8,1.70131 3.8,3.8c0,2.09869 -1.70132,3.80001 -3.8,3.80001c-2.09868,0 -3.8,-1.70132 -3.8,-3.80001z" fill="#262626"/><path d="M231.86667,167.05758c0,-1.69367 1.37299,-3.06667 3.06667,-3.06667c1.69367,0 3.06667,1.37299 3.06667,3.06667c0,1.69368 -1.37299,3.06667 -3.06667,3.06667c-1.69368,0 -3.06667,-1.37299 -3.06667,-3.06667z" fill="#565352"/></g><g><path d="M222.3,174.22424c0,-2.09869 1.70131,-3.8 3.8,-3.8c2.09868,0 3.80001,1.70131 3.80001,3.8c0,2.09868 -1.70132,3.8 -3.80001,3.8c-2.09868,0 -3.8,-1.70132 -3.8,-3.8z" fill="#262626"/><path d="M223.03333,174.22424c0,-1.69368 1.37299,-3.06667 3.06667,-3.06667c1.69367,0 3.06667,1.37299 3.06667,3.06667c0,1.69367 -1.373,3.06667 -3.06667,3.06667c-1.69367,0 -3.06667,-1.373 -3.06667,-3.06667z" fill="#565352"/></g><g><path d="M250.1,174.22424c0,-2.09869 1.70132,-3.8 3.8,-3.8c2.09869,0 3.80001,1.70131 3.80001,3.8c0,2.09868 -1.70132,3.8 -3.80001,3.8c-2.09868,0 -3.8,-1.70132 -3.8,-3.8z" fill="#262626"/><path d="M250.83333,174.22424c0,-1.69368 1.37299,-3.06667 3.06666,-3.06667c1.69368,0 3.06667,1.37299 3.06667,3.06667c0,1.69367 -1.373,3.06667 -3.06667,3.06667c-1.69367,0 -3.06666,-1.373 -3.06666,-3.06667z" fill="#565352"/></g><path d="M253.18836,177.26576c0,0 1.50689,-1.42378 2.07642,-2.24861c0.51247,-0.74219 1.18764,-2.47866 1.18764,-2.47866c0,0 0.61018,0.99618 0.56408,2.41419c-0.05077,1.56193 -1.59326,1.89952 -2.7459,2.31308c-0.44308,0.15897 -1.08225,0 -1.08225,0z" fill="#454242"/><path d="M246.41563,169.85667c0,0 0.70536,-1.58531 0.90836,-2.37185c0.18668,-0.72331 0.26481,-2.1736 0.26481,-2.1736c0,0 0.61018,0.99618 0.56408,2.41419c-0.05078,1.56193 -1.73724,2.13126 -1.73724,2.13126z" fill="#454242"/><path d="M236.23381,169.85667c0,0 0.70535,-1.58531 0.90835,-2.37185c0.18668,-0.72331 0.26481,-2.1736 0.26481,-2.1736c0,0 0.61018,0.99618 0.56408,2.41419c-0.05077,1.56193 -1.73724,2.13126 -1.73724,2.13126z" fill="#454242"/><g><g><path d="M233.1,180.84242v-10.93333l4.26667,-0.6l3.39999,8.4z" fill="#262626"/><path d="M239.9,177.30909l2.93333,-8l4.4,0.6v10.93333z" data-paper-data="{&quot;index&quot;:null}" fill="#262626"/><path d="M230.83333,190.97576c0,0 -1.91706,-3.66661 -2.82997,-5.75781c-0.99167,-2.27162 -2.57002,-7.37552 -2.57002,-7.37552l3.92728,-1.95757l4.20606,3.62424z" fill="#262626"/><path d="M246.74849,179.69091l4.30909,-4.35152l3.64242,2.50303c0,0 -1.57835,5.1039 -2.57003,7.37552c-0.91291,2.09121 -2.82998,5.75781 -2.82998,5.75781z" data-paper-data="{&quot;index&quot;:null}" fill="#262626"/><path d="M231.5,190.57576c0,0 -2.20699,-4.8717 -3.0953,-7.20501c-0.75738,-1.98939 -2.37136,-6.26166 -2.37136,-6.26166l2.35156,-1.07666c0,0 3.07121,2.8504 4.00179,3.65347c0.49847,0.43017 1.1545,0.32865 1.16054,-0.30779c0.01676,-1.76623 0.09493,-10.00162 0.09493,-10.00162l2.78601,0.00955c0,0 1.21482,2.30984 1.7957,3.67016c0.41285,0.96683 1.07405,2.70202 1.54597,3.96003c0.32677,0.87106 0.75545,0.88157 1.02296,0.0137c0.40923,-1.32764 0.99363,-3.2078 1.33145,-4.22395c0.43066,-1.29543 1.27733,-3.5078 1.27733,-3.5078l3.1732,-0.14535c0,0 0.13987,8.47133 0.16986,10.28776c0.01081,0.65438 0.53241,0.78006 0.94516,0.33114c0.84056,-0.91425 3.82863,-4.16425 3.82863,-4.16425l2.57551,1.3435c0,0 -1.48722,4.45983 -2.29001,6.45274c-0.94854,2.35471 -3.30391,7.50537 -3.30391,7.50537z" fill="#565352"/></g><path d="M242.12667,189.34909c0,0 3.79323,-2.58615 5.24493,-4.25638c2.07705,-2.38972 6.39143,-8.25877 6.39143,-8.25877l0.26364,0.18182c0,0 -1.86466,5.70175 -2.82475,8.13196c-0.78004,1.97448 -2.57525,5.36804 -2.57525,5.36804z" fill="#454242"/></g><path d="M228.59744,176.22031l-0.00866,-3.81818c0,0 0.61018,0.99618 0.56408,2.41419c-0.05077,1.56193 -0.55542,1.404 -0.55542,1.404z" fill="#454242"/></g><path d="M227.07143,196.08258c0,-0.91122 0,-2.41555 0,-3.44987c0,-0.8088 1.23058,-2.30781 3.58897,-3.08087c2.35231,-0.77107 5.67519,-1.1706 8.95343,-1.19879c2.70636,-0.02327 5.64074,0.33056 7.96801,0.85963c3.27638,0.74484 5.34674,2.19039 5.34674,3.06663c0,1.08378 0,2.71718 0,3.71631c0,0.52725 -0.37058,0.87786 -1.02181,0.87786c-4.38471,0 -21.49192,0 -23.86957,0c-0.5379,0 -0.96578,-0.31433 -0.96578,-0.79091z" fill="#262626" stroke="#000000"/><g stroke="#000000"><path d="M227.88096,195.51736c0,-0.73256 0,-1.97505 0,-2.82499c0,-0.65389 1.14899,-1.86581 3.35102,-2.49082c2.19635,-0.6234 5.29894,-0.9464 8.35984,-0.96919c2.52693,-0.01881 5.26676,0.26725 7.43973,0.69499c3.05916,0.60218 4.99227,1.77089 4.99227,2.47931c0,0.83707 0,2.07968 0,2.89331c0,0.48749 -0.30895,0.82098 -0.85617,0.82098c-4.01713,0 -20.87445,0 -22.6087,0c-0.38632,0 -0.67799,-0.23845 -0.67799,-0.60359z" fill="#565352"/><path d="M227.88096,192.69237c0,-0.65389 1.14899,-1.86581 3.35102,-2.49082c2.19635,-0.6234 5.29894,-0.9464 8.35984,-0.96919c2.52693,-0.01881 5.26676,0.26725 7.43973,0.69499c3.05916,0.60218 4.99227,1.77089 4.99227,2.47931c0,0.00097 -6.08994,-1.14578 -12.25917,-1.07265c-5.89602,0.0699 -11.88369,1.35986 -11.88369,1.35836z" fill="#787575"/></g></g></g></svg>