<svg version="1.1" xmlns="http://www.w3.org/2000/svg" xmlns:xlink="http://www.w3.org/1999/xlink" width="25.85716" height="33.74695" viewBox="0,0,25.85716,33.74695"><g transform="translate(-227.07142,-163.12653)"><g data-paper-data="{&quot;isPaintingLayer&quot;:true}" fill-rule="nonzero" stroke-width="0" stroke-linecap="butt" stroke-linejoin="miter" stroke-miterlimit="10" stroke-dasharray="" stroke-dashoffset="0" style="mix-blend-mode: normal"><g stroke="none"><g><g><path d="M230.54445,190.24827l1.61664,-16.04194h15.54452l1.61663,16.04194z" fill="#262626"/><path d="M231.54445,189.39396l1.44445,-14.33333h13.88889l1.44445,14.33333z" fill="#565352"/></g><path d="M245.76668,190.06063c0,0 0.27999,-2.71414 -0.31113,-5.42506c-0.38228,-1.75319 -1.51673,-3.50503 -2.02072,-4.52053c-1.19133,-2.40045 -6.1126,-5.0544 -6.1126,-5.0544h9.55556l1.66666,15.55555z" fill="#454242"/></g><g><path d="M228.8514,170.50922c0,-1.05498 0,-2.92526 0,-4.11526c0,-0.65023 0.432,-1.36111 0.89269,-1.59925c0.25283,-0.13069 0.5143,-0.25368 0.71776,-0.32111c0.28687,-0.09507 1.10738,-0.31418 1.86369,-0.51142c0.7733,-0.20167 1.65242,0.28407 1.77739,0.76436c0.13268,0.5099 0.43517,1.67235 0.64318,2.47172c0.12459,0.4788 0.14322,0.8266 0.76927,0.82648c0.50979,-0.0001 0.70555,-0.42171 0.79526,-0.9905c0.14389,-0.91228 0.34786,-2.20549 0.43449,-2.75477c0.04045,-0.25647 0.11329,-0.66781 0.34244,-0.89759c0.21368,-0.21426 0.57778,-0.25617 0.79039,-0.25534c0.65018,0.00253 2.52933,0.00986 3.77728,0.01472c0.35886,0.0014 0.78368,0.08428 1.01467,0.35142c0.20859,0.24124 0.23861,0.65325 0.28462,0.92584c0.07506,0.4447 0.4052,2.13773 0.60067,3.13453c0.08649,0.44104 0.27826,0.7611 0.74369,0.76425c0.43344,0.00294 0.72128,-0.364 0.79752,-0.89709c0.13393,-0.93657 0.3334,-2.33141 0.41528,-2.90394c0.06999,-0.48937 0.75016,-0.93943 1.41693,-0.71829c0.6535,0.21673 1.38267,0.45906 1.70812,0.56901c0.26884,0.09083 0.64893,0.23957 1.00861,0.3855c0.54142,0.21968 1.03661,0.88161 1.03661,1.53036c0,1.15687 0,2.95025 0,3.9713c0,1.55113 -1.40027,4.59135 -3.46325,4.59135c-4.85061,0 -12.68444,0 -15.27513,0c-1.47347,0 -3.09218,-2.83216 -3.09218,-4.33628z" fill="#262626"/><path d="M229.76668,170.17174c0,-0.8976 0,-2.43404 0,-3.44445c0,-0.58953 0.38495,-1.18701 0.80835,-1.37593c0.30351,-0.13543 0.62676,-0.27186 0.84213,-0.34108c0.178,-0.05721 0.43072,-0.10835 0.68635,-0.1509c0.22794,-0.03793 0.61398,-0.04236 0.85842,0.1287c0.28409,0.19881 0.41586,0.59567 0.49589,0.8424c0.1447,0.44615 0.41333,1.41219 0.61125,2.13672c0.14024,0.51337 0.76682,0.90516 1.09862,0.90495c0.15742,-0.0001 0.40016,-0.00026 0.6522,-0.00042c0.49079,-0.00031 1.07052,-0.4065 1.14587,-0.97258c0.14396,-1.08161 0.367,-2.74817 0.4458,-3.28616c0.05474,-0.37379 0.56011,-0.81445 1.13308,-0.81189c0.79833,0.00357 1.85376,0.00828 2.33279,0.01042c0.24878,0.00111 0.68766,0.06318 0.95812,0.29782c0.25229,0.21888 0.3436,0.60235 0.38551,0.83841c0.11245,0.63324 0.40383,2.43816 0.56783,3.4597c0.06983,0.43496 0.63857,0.71608 0.98821,0.70816c0.24284,-0.0055 0.68284,-0.01546 1.08738,-0.02462c0.47536,-0.01076 0.94663,-0.34001 1.01059,-0.79548c0.12776,-0.90983 0.33165,-2.36186 0.40605,-2.89173c0.05383,-0.38331 0.52296,-0.75862 0.97507,-0.6422c0.31471,0.08104 0.65304,0.17319 0.89545,0.25261c0.27873,0.09133 0.69057,0.24985 1.05373,0.39427c0.42514,0.16907 0.78355,0.78409 0.78355,1.42993c0,0.94807 0,2.2853 0,3.11112c0,1.35136 -1.2579,4 -3.11111,4c-2.02247,0 -4.53175,-0.33334 -7.11111,-0.33334c-2.97786,0 -5.97514,0.33334 -7.22222,0.33334c-1.32366,0 -2.77778,-2.46739 -2.77778,-3.77778z" fill="#565352"/><path d="M229.76668,170.17174c0,-0.96629 0,-2.67296 0,-3.66667c0,-0.46793 0.4167,-0.98021 0.85985,-1.17662c0.28812,-0.1277 0.5874,-0.25285 0.79062,-0.31817c0.2404,-0.07727 -0.49059,1.4331 -0.68311,3.23344c-0.22486,2.10275 0.04206,4.52012 -0.25129,4.03185c-0.43171,-0.71858 -0.71608,-1.52433 -0.71608,-2.10382z" fill="#787575"/><path d="M245.87779,173.94952c0,0 0.93134,-0.96217 1.27271,-1.94834c0.25424,-0.73447 0.08446,-2.21459 0.42699,-3.59905c0.40218,-1.62557 1.3003,-3.11928 1.3003,-3.11928c0,0 0.34869,0.1585 0.53898,0.24499c0.21426,0.09739 0.71548,0.6806 0.74071,1.23297c0.03444,0.75413 0.05578,1.84809 -0.03595,2.80414c-0.10807,1.12637 -0.49253,2.10436 -0.73263,2.58457c-0.27248,0.54497 -0.80227,1.13169 -1.36404,1.46048c-0.97029,0.56789 -2.14708,0.33952 -2.14708,0.33952z" fill="#454242"/></g></g><g stroke="#000000"><path d="M227.07143,196.08258c0,-0.91122 0,-2.41555 0,-3.44987c0,-0.8088 1.23058,-2.30781 3.58897,-3.08087c2.35231,-0.77107 5.67519,-1.1706 8.95343,-1.19879c2.70636,-0.02327 5.64074,0.33056 7.96801,0.85963c3.27638,0.74484 5.34674,2.19039 5.34674,3.06663c0,1.08378 0,2.71718 0,3.71631c0,0.52725 -0.37058,0.87786 -1.02181,0.87786c-4.38471,0 -21.49192,0 -23.86957,0c-0.5379,0 -0.96578,-0.31433 -0.96578,-0.79091z" fill="#262626"/><g><path d="M227.88096,195.51736c0,-0.73256 0,-1.97505 0,-2.82499c0,-0.65389 1.14899,-1.86581 3.35102,-2.49082c2.19635,-0.6234 5.29894,-0.9464 8.35984,-0.96919c2.52693,-0.01881 5.26676,0.26725 7.43973,0.69499c3.05916,0.60218 4.99227,1.77089 4.99227,2.47931c0,0.83707 0,2.07968 0,2.89331c0,0.48749 -0.30895,0.82098 -0.85617,0.82098c-4.01713,0 -20.87445,0 -22.6087,0c-0.38632,0 -0.67799,-0.23845 -0.67799,-0.60359z" fill="#565352"/><path d="M227.88096,192.69237c0,-0.65389 1.14899,-1.86581 3.35102,-2.49082c2.19635,-0.6234 5.29894,-0.9464 8.35984,-0.96919c2.52693,-0.01881 5.26676,0.26725 7.43973,0.69499c3.05916,0.60218 4.99227,1.77089 4.99227,2.47931c0,0.00097 -6.08994,-1.14578 -12.25917,-1.07265c-5.89602,0.0699 -11.88369,1.35986 -11.88369,1.35836z" fill="#787575"/></g></g><path d="M237.21701,166.17778c0,0 0.15659,-1.09614 0.21778,-1.52444c0.02157,-0.15099 0.14465,-0.38878 0.3444,-0.54911c0.21297,-0.17095 0.50715,-0.25978 0.66005,-0.25978c0.2963,0 0.88889,0 0.88889,0c0,0 -0.8911,0.40596 -1.23566,0.78679c-0.35859,0.39634 -0.87546,1.54655 -0.87546,1.54655z" fill="#787575" stroke="none"/><path d="M246.19286,166.17778c0,0 0.06652,-0.49887 0.10189,-0.76419c0.03844,-0.28833 0.51135,-0.76124 0.72164,-0.70867c0.23202,0.058 0.73203,0.183 0.73203,0.183c0,0 -0.44599,0.54515 -0.71242,0.77352c-0.25119,0.21531 -0.84314,0.51634 -0.84314,0.51634z" fill="#787575" stroke="none"/></g></g></svg>